<?xml version="1.0" encoding="UTF-8"?>
<svg width="347px" height="34px" viewBox="0 0 347 34" version="1.1" xmlns="http://www.w3.org/2000/svg" xmlns:xlink="http://www.w3.org/1999/xlink">
    <!-- Generator: Sketch 47 (45396) - http://www.bohemiancoding.com/sketch -->
    <title>Dark Word Mark</title>
    <desc>Created with Sketch.</desc>
    <defs>
        <path d="M269.514784,15.4672958 C269.602744,15.0233262 269.633075,14.597519 269.745299,14.136396 C269.967725,13.2050689 270.253846,12.288877 270.669378,11.4362536 C271.471123,9.71889839 272.634817,8.20738367 274.001727,7.02380104 C275.366614,5.83517331 276.928653,4.97649573 278.500801,4.46189459 C280.082049,3.93518519 281.640043,3.78383191 283.118166,3.79190408 C284.540682,3.8201567 285.87625,4.09259259 286.98737,4.46290361 C288.110622,4.82211538 289.037735,5.2892925 289.766686,5.72518993 C290.500692,6.15705128 291.038559,6.56166904 291.398485,6.8462132 C291.748301,7.14084758 291.936352,7.29926401 291.936352,7.29926401 L292.022289,7.37191358 C292.706755,7.94503799 293.728905,7.89458689 294.352709,7.23973172 C295.001789,6.55864198 294.97348,5.48201567 294.291036,4.83523267 C294.291036,4.83523267 294.06861,4.62333808 293.652066,4.22780152 C293.222379,3.84538224 292.578355,3.29445632 291.67854,2.69711538 C289.891042,1.52059592 286.98737,0.146308167 283.21118,0.0171533713 C281.386275,-0.019171415 279.331866,0.195750237 277.308799,0.87078585 C275.280677,1.53472222 273.270753,2.63960114 271.51662,4.16524217 C269.761475,5.68583808 268.264143,7.62719611 267.231883,9.83998101 C266.702104,10.9398148 266.326002,12.1183523 266.042914,13.3200973 C265.897326,13.9245014 265.828576,14.598528 265.730507,15.2372388 C265.693099,15.5490266 265.696132,15.7962369 265.676922,16.0797721 L265.632437,17 C265.634459,19.4751306 266.194568,21.9532882 267.231883,24.161028 C268.264143,26.3738129 269.761475,28.3141619 271.51662,29.8357669 C273.270753,31.3614079 275.280677,32.4652778 277.308799,33.1302232 C278.325893,33.4531102 279.317712,33.7023386 280.395467,33.8325024 C280.951533,33.9273504 281.379198,33.9404677 281.803829,33.9596391 C282.018167,33.9707384 282.231494,33.9808286 282.441788,33.9919278 L282.6996,34 L282.875519,33.9949549 L283.226346,33.9838557 C285.084615,33.9142331 286.769999,33.538877 288.193526,33.0394112 C289.616043,32.5268281 290.774681,31.8901353 291.67854,31.3038936 C292.579366,30.7045347 293.21328,30.163699 293.677342,29.75 C294.0585,29.3867521 294.262727,29.1930199 294.262727,29.1930199 C294.908774,28.5744896 294.972469,27.5483143 294.385062,26.8581434 C293.775412,26.1407289 292.698667,26.053953 291.979826,26.6623932 L291.964661,26.6755104 C291.964661,26.6755104 291.758411,26.8500712 291.371187,27.1780033 C291.046647,27.4302588 290.499681,27.8449668 289.766686,28.2758191 C288.318894,29.1395418 286.020827,30.1415005 283.103,30.210114 L282.830023,30.21415 L282.700611,30.2161681 L282.633883,30.213141 C282.42359,30.2020418 282.210263,30.1919516 281.994914,30.1808523 C281.559161,30.1626899 281.109253,30.1435185 280.787746,30.0688509 C280.09317,29.983084 279.288392,29.7883428 278.500801,29.5391144 C276.928653,29.0235043 275.366614,28.1658357 274.001727,26.977208 C272.634817,25.7926163 271.471123,24.2811016 270.669378,22.5647555 C269.863589,20.8494183 269.427836,18.9332858 269.423792,17 L269.463222,16.2714862 C269.48142,16.0061135 269.48142,15.7013889 269.514784,15.4672958 L269.514784,15.4672958 Z M250.845142,15.0243352 C254.434291,15.0243352 256.940629,12.84283 256.940629,9.71889839 C256.940629,6.59496676 254.434291,4.41346154 250.845142,4.41346154 L239.285048,4.41346154 L239.285048,15.0243352 L250.845142,15.0243352 Z M260.532812,30.3887108 C261.136395,31.2423433 260.933179,32.4228989 260.076838,33.0252849 C259.745221,33.259378 259.363052,33.3713794 258.985939,33.3713794 C258.390443,33.3713794 257.804047,33.0928894 257.435022,32.570216 L247.701856,18.8081671 L239.285048,18.8081671 L239.285048,31.4794634 C239.285048,32.5248101 238.435784,33.3713794 237.38937,33.3713794 C236.341945,33.3713794 235.493693,32.5248101 235.493693,31.4794634 L235.493693,2.52154558 C235.493693,1.47619896 236.341945,0.62962963 237.38937,0.62962963 L250.845142,0.62962963 C256.573626,0.62962963 260.731984,4.45180437 260.731984,9.71889839 C260.731984,14.5349596 257.251015,18.1321225 252.277768,18.7163462 L260.532812,30.3887108 Z M323.104323,4.41346154 C324.150736,4.41346154 325,3.56588319 325,2.52154558 C325,1.47619896 324.150736,0.62962963 323.104323,0.62962963 L303.724938,0.62962963 C302.678524,0.62962963 301.829261,1.47619896 301.829261,2.52154558 L301.829261,31.4794634 C301.829261,32.5248101 302.678524,33.3713794 303.724938,33.3713794 L323.104323,33.3713794 C324.150736,33.3713794 325,32.5248101 325,31.4794634 C325,30.4341168 324.150736,29.5875475 323.104323,29.5875475 L305.620616,29.5875475 L305.620616,18.8243115 L317.904606,18.8243115 C318.95102,18.8243115 319.800283,17.9777422 319.800283,16.9323955 C319.800283,15.8880579 318.95102,15.0404796 317.904606,15.0404796 L305.620616,15.0404796 L305.620616,4.41346154 L323.104323,4.41346154 Z M126.919398,4.41346154 C127.965812,4.41346154 128.815075,3.56588319 128.815075,2.52154558 C128.815075,1.47619896 127.965812,0.62962963 126.919398,0.62962963 L107.541024,0.62962963 C106.49461,0.62962963 105.645347,1.47619896 105.645347,2.52154558 L105.645347,31.4794634 C105.645347,32.5248101 106.49461,33.3713794 107.541024,33.3713794 L126.919398,33.3713794 C127.965812,33.3713794 128.815075,32.5248101 128.815075,31.4794634 C128.815075,30.4341168 127.965812,29.5875475 126.919398,29.5875475 L109.436702,29.5875475 L109.436702,18.8243115 L121.719681,18.8243115 C122.767106,18.8243115 123.615358,17.9777422 123.615358,16.9323955 C123.615358,15.8880579 122.767106,15.0404796 121.719681,15.0404796 L109.436702,15.0404796 L109.436702,4.41346154 L126.919398,4.41346154 Z M95.3601593,17 C95.3601593,9.35363248 89.5983108,4.41346154 80.681044,4.41346154 L75.8483302,4.41346154 L75.8483302,29.5875475 L80.681044,29.5875475 C92.8143908,29.5875475 95.3601593,22.7423433 95.3601593,17 L95.3601593,17 Z M99.1515142,17 C99.1515142,27.4040242 92.4190789,33.3713794 80.681044,33.3713794 L73.9526528,33.3713794 C72.9062388,33.3713794 72.0569753,32.5248101 72.0569753,31.4794634 L72.0569753,2.52154558 C72.0569753,1.47619896 72.9062388,0.62962963 73.9526528,0.62962963 L80.681044,0.62962963 C93.4402171,0.62962963 99.1515142,8.85214862 99.1515142,17 L99.1515142,17 Z M157.96099,22.2903015 C157.470641,20.8050214 156.503088,19.5356719 155.413199,18.5982906 C154.317245,17.6508191 153.105022,16.9747745 151.883701,16.4349478 C150.648224,15.893103 149.43398,15.4975665 148.139864,15.1777066 C147.459442,14.9940646 146.970105,14.9133428 146.301815,14.7629986 C145.740695,14.6469611 145.181596,14.5278965 144.639685,14.3866334 C143.554852,14.1071344 142.509449,13.7701211 141.58537,13.3402778 C140.660279,12.9134615 139.873699,12.3847341 139.33381,11.7863841 C139.077009,11.4796415 138.853572,11.1708808 138.712028,10.8217593 C138.541164,10.4958452 138.467359,10.071047 138.412764,9.78549383 C138.162029,7.92687559 138.798977,6.58386752 139.969747,5.56980057 C141.137484,4.57288699 142.78546,4.05828585 144.306046,3.88271605 C145.916614,3.71118234 147.343174,3.77273267 148.59786,4.05525878 C149.84749,4.32668566 150.914125,4.72524929 151.766421,5.13390313 C152.613663,5.53751187 153.290041,5.9269943 153.701529,6.18933998 C153.903735,6.30941358 154.101896,6.44865859 154.218164,6.52534425 C154.340499,6.606066 154.403182,6.6474359 154.403182,6.6474359 L154.42037,6.65853514 C155.166509,7.15497388 156.179559,6.98848528 156.726525,6.26602564 C157.293711,5.51531339 157.144079,4.44675926 156.391874,3.87968898 C156.391874,3.87968898 156.142151,3.69201092 155.675056,3.34087132 C155.152354,2.96854226 154.433513,2.45192308 153.391143,1.91007835 C152.359895,1.37327873 151.03747,0.781991928 149.411737,0.413698955 C147.80117,0.0232075024 145.869095,-0.109983381 143.880403,0.123100665 C141.838127,0.374347104 139.541071,0.997922602 137.511938,2.68904321 C136.516075,3.52854938 135.638503,4.66672602 135.121868,5.99964387 C134.988412,6.328585 134.903486,6.67669753 134.79935,7.01976496 C134.727567,7.36686847 134.664883,7.72103514 134.616354,8.07419278 L134.584001,8.60493827 L134.570858,8.87132004 L134.564791,9.00451092 L134.570858,9.2113604 L134.592089,9.63212251 C134.600177,9.77136752 134.601188,9.89648623 134.636574,10.1204891 C134.749809,10.947887 134.915618,11.6521842 135.248246,12.3615266 C135.551555,13.071878 135.998429,13.720679 136.495855,14.2958215 C137.519015,15.429962 138.756513,16.1968186 139.979857,16.767925 C141.211289,17.3390313 142.457887,17.7305318 143.699429,18.0514008 C144.3202,18.2138533 144.93996,18.3450261 145.559721,18.4731719 C146.067257,18.5912274 146.76891,18.7163462 147.25117,18.8566002 C149.377362,19.3853276 151.511642,20.234924 152.922026,21.4507953 C154.343532,22.6949193 154.832869,24.1014957 154.399138,25.913699 C154.3223,26.1780627 154.192889,26.5887346 153.992705,26.9116216 C153.907779,27.0841643 153.80061,27.2456078 153.677264,27.3979701 C153.574139,27.5604226 153.433607,27.7016857 153.298129,27.8459758 C152.752174,28.4201092 152.046476,28.8852683 151.275062,29.2343898 C149.727178,29.9447412 147.972033,30.1949786 146.359444,30.212132 C146.116797,30.212132 145.439408,30.2091049 145.192717,30.165717 C144.877277,30.1415005 144.518362,30.0829772 144.164502,30.0204179 C143.464871,29.8761277 142.796581,29.705603 142.179854,29.4755461 C140.938312,29.0517569 139.885832,28.5139482 139.047689,28.0346629 C138.206514,27.5563865 137.574622,27.1275522 137.162122,26.8268637 C136.74659,26.5261752 136.547417,26.3566595 136.547417,26.3566595 C135.864973,25.7744539 134.832714,25.8168329 134.204865,26.4737061 C133.553763,27.1527778 133.578028,28.2304131 134.259461,28.8792142 L134.304957,28.9236111 C134.304957,28.9236111 134.55367,29.1607312 135.032897,29.5502137 C135.514147,29.9417142 136.222877,30.4956671 137.190431,31.1061254 C138.164051,31.7044753 139.379307,32.3946462 140.908992,32.9637346 C141.667263,33.2573599 142.515515,33.4954891 143.428474,33.6952754 C143.885458,33.7830603 144.35963,33.8718542 144.908619,33.9202873 C145.521302,33.9868827 145.734628,33.9858737 146.39483,33.9959639 C148.389588,33.9667023 150.612838,33.6892213 152.854288,32.6751543 C155.057318,31.690349 157.40088,29.75 158.120732,26.6361586 L158.189482,26.3445513 L158.219813,26.1346747 L158.281486,25.7129036 L158.297662,25.6069563 L158.316872,25.4354226 L158.318894,25.3668091 L158.327993,25.0913462 L158.340125,24.5404202 C158.33507,24.1701092 158.278453,23.788699 158.239023,23.4133428 C158.159151,23.0389957 158.076247,22.6585945 157.96099,22.2903015 L157.96099,22.2903015 Z M226.378264,0.62962963 C225.33185,0.62962963 224.482587,1.47619896 224.482587,2.52154558 L224.482587,20.2177707 C224.482587,25.731066 220.145277,30.2161681 214.814126,30.2161681 C209.481965,30.2161681 205.144655,25.731066 205.144655,20.2177707 L205.144655,2.52154558 C205.144655,1.47619896 204.295391,0.62962963 203.248977,0.62962963 C202.202563,0.62962963 201.3533,1.47619896 201.3533,2.52154558 L201.3533,20.2177707 C201.3533,27.8177232 207.39217,34 214.814126,34 C222.235072,34 228.273942,27.8177232 228.273942,20.2177707 L228.273942,2.52154558 C228.273942,1.47619896 227.424678,0.62962963 226.378264,0.62962963 L226.378264,0.62962963 Z M191.551384,17 C191.551384,9.71284425 186.007917,3.78383191 179.1946,3.78383191 C172.381282,3.78383191 166.837816,9.71284425 166.837816,17 C166.837816,24.2881648 172.381282,30.2161681 179.1946,30.2161681 C186.007917,30.2161681 191.551384,24.2881648 191.551384,17 L191.551384,17 Z M195.342738,17 C195.342738,26.3738129 188.098723,34 179.1946,34 C170.290476,34 163.046461,26.3738129 163.046461,17 C163.046461,7.62618708 170.290476,0 179.1946,0 C188.098723,0 195.342738,7.62618708 195.342738,17 L195.342738,17 Z M61.8132398,17 C61.8132398,9.71284425 56.2707844,3.78383191 49.4574668,3.78383191 C42.6441493,3.78383191 37.1006828,9.71284425 37.1006828,17 C37.1006828,24.2881648 42.6441493,30.2161681 49.4574668,30.2161681 C56.2707844,30.2161681 61.8132398,24.2881648 61.8132398,17 L61.8132398,17 Z M65.6045947,17 C65.6045947,26.3738129 58.3605792,34 49.4574668,34 C40.5533434,34 33.3093279,26.3738129 33.3093279,17 C33.3093279,7.62618708 40.5533434,0 49.4574668,0 C58.3605792,0 65.6045947,7.62618708 65.6045947,17 L65.6045947,17 Z M26.7093372,2.52154558 L26.7093372,31.4794634 C26.7093372,32.2846629 26.1977571,33.0020774 25.435442,33.2664411 C25.2312143,33.3370726 25.0219315,33.3713794 24.8136598,33.3713794 C24.244451,33.3713794 23.6924297,33.1150878 23.3254266,32.6519468 L3.79135493,7.96925451 L3.79135493,31.4794634 C3.79135493,32.5248101 2.94209143,33.3713794 1.89567747,33.3713794 C0.849263505,33.3713794 0,32.5248101 0,31.4794634 L0,2.52154558 C0,1.71533713 0.511580159,0.997922602 1.27389526,0.734567901 C2.03722138,0.470204179 2.88142975,0.715396486 3.38391066,1.3490622 L22.9179823,26.0317545 L22.9179823,2.52154558 C22.9179823,1.47619896 23.7672458,0.62962963 24.8136598,0.62962963 C25.8600737,0.62962963 26.7093372,1.47619896 26.7093372,2.52154558 L26.7093372,2.52154558 Z" id="path-1"></path>
        <path d="M7.17627887,6.4927773 L9.31904492,6.4927773 C9.91164801,6.4927773 10.2934675,6.82946428 10.2934675,7.34852337 C10.2934675,7.86885779 9.91164801,8.20426944 9.31904492,8.20426944 L7.17627887,8.20426944 L7.17627887,6.4927773 Z M6.44395636,13.056898 C6.8486609,13.056898 7.17627887,12.7100084 7.17627887,12.2814977 L7.17627887,9.75634539 L8.47711492,9.75634539 L10.4596854,12.7291384 C10.6030183,12.9433937 10.8294601,13.056898 11.0595154,13.056898 C11.2052572,13.056898 11.3522035,13.0109862 11.4810826,12.9153365 C11.812314,12.6679225 11.8906051,12.1832974 11.6569364,11.8338571 L10.1718152,9.60713184 C11.1149214,9.27937217 11.759317,8.42107544 11.759317,7.34852337 C11.759317,5.97626887 10.7102168,4.94070135 9.31904492,4.94070135 L6.44395636,4.94070135 C6.03925181,4.94070135 5.71042936,5.28886629 5.71042936,5.71737699 L5.71042936,12.2814977 C5.71042936,12.7100084 6.03925181,13.056898 6.44395636,13.056898 L6.44395636,13.056898 Z M8.50120448,1.5878602 C12.3603514,1.5878602 15.5004251,4.9126441 15.5004251,9.00007502 C15.5004251,13.0862306 12.3603514,16.4110145 8.50120448,16.4110145 C4.64205753,16.4110145 1.50077937,13.0862306 1.50077937,9.00007502 C1.50077937,4.9126441 4.64205753,1.5878602 8.50120448,1.5878602 L8.50120448,1.5878602 Z M8.5,17.9987997 C13.1866232,17.9987997 17,13.9623819 17,8.99879969 C17,4.03649276 13.1866232,7.501938e-05 8.5,7.501938e-05 C3.81337679,7.501938e-05 0,4.03649276 0,8.99879969 C0,13.9623819 3.81337679,17.9987997 8.5,17.9987997 L8.5,17.9987997 Z" id="path-3"></path>
    </defs>
    <g id="NodeSource-Logos" stroke="none" stroke-width="1" fill="none" fill-rule="evenodd">
        <g id="Dark-Word-Mark">
            <g id="Word-Mark">
                <mask id="mask-2" fill="white">
                    <use xlink:href="#path-1"></use>
                </mask>
                <use id="Logo-Fill" fill="#4C5859" fill-rule="evenodd" xlink:href="#path-1"></use>
            </g>
            <g id="Register-Mark" transform="translate(330.000000, 0.000000)">
                <mask id="mask-4" fill="white">
                    <use xlink:href="#path-3"></use>
                </mask>
                <use id="Fill-1" fill="#4C5859" fill-rule="evenodd" xlink:href="#path-3"></use>
            </g>
        </g>
    </g>
</svg>